<?xml version="1.0" standalone="no"?>
<!DOCTYPE svg PUBLIC "-//W3C//DTD SVG 20010904//EN"
 "http://www.w3.org/TR/2001/REC-SVG-20010904/DTD/svg10.dtd">
<svg version="1.0" xmlns="http://www.w3.org/2000/svg"
 width="1575.000000pt" height="1517.000000pt" viewBox="0 0 1575.000000 1517.000000"
 preserveAspectRatio="xMidYMid meet">

<g transform="translate(0.000000,1517.000000) scale(0.100000,-0.100000)"
fill="#000000" stroke="none">
<path d="M6097 15136 c-322 -57 -540 -210 -608 -425 -43 -139 -21 -380 48
-521 39 -79 167 -203 278 -269 50 -29 81 -50 70 -47 -88 25 -321 59 -435 63
-367 15 -723 -110 -963 -336 -169 -160 -249 -338 -232 -521 32 -371 232 -590
679 -746 226 -79 459 -131 1136 -255 576 -105 803 -150 1102 -219 734 -170
1385 -392 1991 -678 l127 -61 -21 -53 c-84 -207 -156 -487 -179 -692 -9 -87
-15 -104 -46 -152 -143 -216 -440 -353 -884 -408 -260 -32 -422 -38 -1415 -47
-561 -5 -1036 -11 -1055 -14 -19 -2 -107 -9 -195 -15 -2160 -147 -3405 -1096
-3960 -3019 -184 -638 -280 -1345 -311 -2277 l-6 -201 -97 -6 c-107 -6 -195
-25 -304 -63 -500 -180 -827 -663 -804 -1189 14 -316 131 -580 356 -806 201
-201 433 -314 718 -350 344 -43 894 109 1311 362 36 22 69 36 73 32 4 -4 18
-73 30 -153 34 -220 32 -545 -5 -810 -45 -331 -56 -440 -58 -585 -1 -119 2
-148 19 -191 77 -197 298 -323 668 -381 132 -21 550 -24 685 -4 47 6 184 16
306 21 266 11 425 26 989 90 557 64 743 80 1005 89 336 11 932 -8 1540 -49 80
-6 352 -23 605 -40 1221 -79 1352 -85 1945 -85 446 0 559 3 677 17 349 43 522
107 573 213 20 40 22 56 15 118 -54 563 -804 989 -2130 1211 -662 110 -1319
164 -2290 186 -253 6 -471 12 -485 13 -14 1 61 15 165 30 993 147 1605 380
2160 823 215 172 503 485 658 713 97 143 179 344 217 524 119 572 -52 1203
-458 1687 -241 289 -578 499 -937 583 -348 82 -694 60 -1084 -69 -279 -93
-574 -247 -841 -439 -122 -88 -123 -87 -38 6 187 205 472 442 715 593 425 264
800 366 1204 326 667 -66 1273 -424 1626 -961 236 -360 348 -803 314 -1239
-19 -243 -66 -460 -151 -703 l-41 -116 254 -383 c988 -1491 1124 -1691 1420
-2093 466 -633 840 -1029 1073 -1137 l49 -23 660 -3 c674 -3 956 5 1154 34
202 30 326 86 358 162 14 32 14 56 5 177 -34 439 -209 690 -564 811 -146 49
-253 64 -748 105 -244 20 -378 56 -459 125 -76 63 -93 154 -151 769 -69 736
-138 1103 -296 1590 -176 540 -241 879 -251 1325 -10 440 19 648 182 1320 109
447 120 507 150 801 l6 56 212 6 c751 22 1520 190 1974 432 340 180 517 371
598 643 111 375 55 872 -161 1442 -70 184 -256 561 -369 750 -350 584 -795
1102 -1260 1465 -281 220 -643 416 -980 532 -566 193 -1246 215 -1849 58 -55
-14 -102 -22 -106 -18 -4 4 -33 44 -66 88 -128 173 -267 330 -488 551 -400
400 -776 703 -1186 959 -773 481 -1657 817 -2465 936 -182 27 -553 35 -668 15z
m7398 -4241 c213 -45 373 -196 431 -406 25 -90 25 -281 0 -369 -45 -158 -153
-291 -288 -355 -240 -114 -562 -70 -731 99 -112 112 -167 259 -167 445 1 361
237 597 600 600 47 0 117 -6 155 -14z"/>
</g>
</svg>
